<?xml version="1.0" encoding="utf-8"?>
<!DOCTYPE svg PUBLIC "-//W3C//DTD SVG 1.1//EN" "http://www.w3.org/Graphics/SVG/1.1/DTD/svg11.dtd">
<svg version="1.1" xmlns="http://www.w3.org/2000/svg" width="70px" height="70px" viewBox="0 0 70 70" preserveAspectRatio="xMidYMid meet">
 <g fill="#4fc1e9">
  <path d="M37 63.1 c-4.4 -2.2 -31.9 -29.3 -34.9 -34.3 -2.1 -3.5 -1.8 -5 0.4 -2.9 0.6 0.4 4.3 2.1 8.3 3.6 8.7 3.4 12.1 6.9 15.2 15.3 2.7 7.5 7.2 12.9 12.4 15.3 5.5 2.5 13.9 2.4 19.6 -0.2 2.5 -1.2 5.6 -2.5 7 -3 2.5 -1 2.5 -1 0 1.5 -5.7 5.8 -20.9 8.4 -28 4.7z"/>
  <path d="M39.8 47.4 c-3 -1.3 -4.9 -3.4 -8.9 -10 -2.8 -4.6 -6.2 -9 -7.5 -9.8 -1.2 -0.9 -5.8 -2.5 -10.1 -3.7 -12.8 -3.4 -14.8 -5.6 -9.2 -10.4 6.9 -5.7 12.7 -7.8 22.9 -8.3 13.6 -0.6 19 1.6 29.1 11.7 11.9 11.9 14.9 20.1 9.2 25.2 -6.6 5.9 -18.4 8.4 -25.5 5.3z"/>
 </g>
</svg>